<?xml version="1.0" standalone="no"?>
<!DOCTYPE svg PUBLIC "-//W3C//DTD SVG 20010904//EN"
 "http://www.w3.org/TR/2001/REC-SVG-20010904/DTD/svg10.dtd">
<svg version="1.0" xmlns="http://www.w3.org/2000/svg"
 width="265.000000pt" height="89.000000pt" viewBox="0 0 265.000000 89.000000"
 preserveAspectRatio="xMidYMid meet">

<g transform="translate(0.000000,89.000000) scale(0.100000,-0.100000)"
fill="#000000" stroke="none">
<path d="M2310 873 c-104 -18 -370 -107 -357 -119 7 -7 431 -113 435 -109 2 2
-23 11 -55 20 -56 16 -57 17 -38 34 11 9 25 24 30 33 30 47 82 107 93 108 6 0
12 7 12 15 0 8 7 15 15 15 8 0 15 -6 15 -12 0 -10 2 -10 8 -2 4 7 18 14 32 17
14 2 -18 4 -70 4 -52 0 -106 -2 -120 -4z"/>
<path d="M2548 863 c12 -2 22 -7 22 -9 0 -3 -38 -52 -85 -109 -47 -57 -85
-106 -85 -109 0 -4 44 -96 97 -207 73 -150 99 -196 106 -184 4 9 6 21 3 28 -2
7 -5 3 -6 -8 -1 -12 -20 18 -45 70 -24 50 -41 92 -38 95 2 2 9 -2 14 -10 8
-11 9 -10 4 8 -4 13 -2 22 4 22 6 0 10 3 9 8 -2 4 11 25 27 47 54 72 54 72 58
-2 2 -38 3 0 2 82 -2 130 -5 159 -26 215 -22 59 -27 65 -54 67 -20 1 -23 0 -7
-4z"/>
<path d="M2207 583 c7 -47 13 -55 13 -18 0 25 2 26 18 14 9 -7 6 -1 -7 14 -14
15 -26 27 -27 27 -2 0 0 -17 3 -37z"/>
<path d="M2228 423 c7 -3 16 -2 19 1 4 3 -2 6 -13 5 -11 0 -14 -3 -6 -6z"/>
<path d="M2623 385 c0 -22 2 -30 4 -17 2 12 2 30 0 40 -3 9 -5 -1 -4 -23z"/>
<path d="M10 210 l0 -200 30 0 30 0 0 145 c0 80 3 145 8 145 4 0 30 -37 57
-82 28 -45 55 -83 60 -85 6 -2 35 36 65 84 l55 87 3 -147 3 -147 34 0 35 0 0
200 0 200 -39 0 c-39 0 -41 -2 -93 -85 -29 -47 -56 -85 -60 -85 -3 0 -30 38
-59 85 -50 83 -53 85 -90 85 l-39 0 0 -200z"/>
<path d="M1010 335 c0 -43 -4 -75 -10 -75 -5 0 -10 4 -10 8 0 13 -48 32 -81
32 -55 0 -100 -29 -121 -78 -34 -76 -10 -165 53 -198 41 -21 111 -18 142 6 25
20 25 20 30 0 3 -14 14 -20 31 -20 l26 0 0 200 0 200 -30 0 -30 0 0 -75z m-42
-111 c56 -39 47 -124 -14 -150 -31 -13 -39 -13 -69 2 -82 39 -56 164 35 164
14 0 36 -7 48 -16z"/>
<path d="M1135 390 c-4 -12 -1 -27 5 -35 27 -33 78 -5 65 35 -4 14 -15 20 -35
20 -20 0 -31 -6 -35 -20z"/>
<path d="M2612 320 c0 -14 2 -19 5 -12 2 6 2 18 0 25 -3 6 -5 1 -5 -13z"/>
<path d="M525 281 c-22 -10 -48 -32 -57 -49 -26 -44 -24 -121 5 -163 32 -47
62 -60 130 -56 47 3 63 9 87 32 98 94 29 257 -109 255 -9 0 -34 -9 -56 -19z
m120 -66 c54 -53 17 -148 -57 -148 -42 0 -78 41 -78 89 0 45 37 84 80 84 19 0
40 -9 55 -25z"/>
<path d="M1140 153 l0 -143 30 0 30 0 0 143 0 142 -30 0 -30 0 0 -142z"/>
<path d="M1323 285 c-52 -22 -75 -68 -70 -144 3 -58 6 -66 40 -97 46 -42 118
-49 181 -17 l28 15 -23 24 c-17 18 -25 21 -35 13 -8 -6 -30 -11 -51 -11 -83 0
-112 107 -44 159 19 15 70 16 91 3 10 -6 20 -4 32 7 25 22 23 30 -12 48 -36
19 -95 19 -137 0z"/>
<path d="M1583 281 c-49 -31 -68 -67 -68 -131 0 -91 45 -140 130 -142 33 0 55
6 75 21 36 26 40 26 40 1 0 -16 7 -20 30 -20 l30 0 0 140 0 140 -36 0 c-28 0
-35 -3 -30 -15 7 -20 -3 -19 -26 1 -28 27 -107 29 -145 5z m142 -66 c38 -37
35 -95 -6 -129 -35 -30 -58 -32 -99 -11 -48 25 -58 100 -19 141 31 33 91 33
124 -1z"/>
<path d="M1966 279 c-21 -17 -26 -18 -26 -5 0 11 -9 16 -30 16 l-30 0 0 -137
1 -138 29 35 c24 29 30 44 30 88 0 43 5 58 26 79 20 20 32 24 59 20 25 -4 38
-1 52 15 17 19 17 20 -2 34 -27 20 -78 17 -109 -7z"/>
<path d="M2143 280 c-47 -28 -66 -63 -66 -123 -2 -96 51 -147 153 -147 47 0
110 21 110 37 0 4 -7 14 -16 24 -14 16 -19 16 -51 2 -45 -18 -97 -10 -118 20
-8 12 -15 25 -15 29 0 5 50 8 110 8 l110 0 0 41 c0 79 -54 129 -142 129 -25 0
-56 -8 -75 -20z m140 -57 c36 -33 22 -43 -63 -43 -44 0 -80 2 -80 4 0 19 18
40 44 52 35 15 72 10 99 -13z"/>
</g>
</svg>
